<svg width="26" height="22" viewBox="0 0 26 22" fill="none" xmlns="http://www.w3.org/2000/svg">
<g clip-path="url(#clip0_1_599)">
<g clip-path="url(#clip1_1_599)">
<path fill-rule="evenodd" clip-rule="evenodd" d="M4 4H29.6503V5.03847H4V4ZM4 6.07694H29.6503V7.11542H4V6.07694ZM4 8.15389H29.6503V9.19236H4V8.15389ZM4 10.2308H29.6503V11.2693H4V10.2308ZM4 12.3078H29.6503V13.3462H4V12.3078ZM4 14.3847H29.6503V15.4232H4V14.3847ZM4 16.4617H29.6503V17.5001H4V16.4617Z" fill="#BD3D44"/>
<path fill-rule="evenodd" clip-rule="evenodd" d="M4 5.03847H29.6503V6.07694H4V5.03847ZM4 7.11541H29.6503V8.15389H4V7.11541ZM4 9.19236H29.6503V10.2308H4V9.19236ZM4 11.2693H29.6503V12.3078H4V11.2693ZM4 13.3462H29.6503V14.3847H4V13.3462ZM4 15.4232H29.6503V16.4617H4V15.4232Z" fill="white"/>
<path fill-rule="evenodd" clip-rule="evenodd" d="M4 4H14.26V11.2692H4V4Z" fill="#192F5D"/>
<path fill-rule="evenodd" clip-rule="evenodd" d="M4.85505 4.31113L4.94839 4.59843H5.2505L5.00608 4.77601L5.09945 5.06331L4.85502 4.88575L4.61065 5.06331L4.70399 4.77601L4.45959 4.59843H4.76168L4.85505 4.31113ZM6.56504 4.31113L6.65841 4.59843H6.96052L6.7161 4.77601L6.80946 5.06331L6.56504 4.88575L6.32067 5.06331L6.41401 4.77601L6.16961 4.59843H6.4717L6.56504 4.31113ZM8.27511 4.31113L8.36845 4.59843H8.67057L8.42614 4.77601L8.51951 5.06331L8.27511 4.88575L8.03071 5.06331L8.12405 4.77601L7.87966 4.59843H8.18177L8.27511 4.31113ZM9.98508 4.31113L10.0784 4.59843H10.3805L10.1361 4.77601L10.2294 5.06331L9.98508 4.88575L9.74065 5.06331L9.83402 4.77601L9.58959 4.59843H9.89171L9.98508 4.31113ZM11.6951 4.31113L11.7885 4.59843H12.0906L11.8462 4.77601L11.9395 5.06331L11.6951 4.88575L11.4507 5.06331L11.5441 4.77601L11.2997 4.59843H11.6018L11.6951 4.31113ZM13.4052 4.31113L13.4985 4.59843H13.8006L13.5562 4.77601L13.6496 5.06331L13.4052 4.88575L13.1607 5.06331L13.2541 4.77601L13.0097 4.59843H13.3118L13.4052 4.31113ZM5.71009 5.03808L5.80342 5.32537H6.10554L5.86112 5.50293L5.95451 5.79025L5.71009 5.6127L5.46569 5.79025L5.55903 5.50293L5.31463 5.32537H5.61675L5.71009 5.03808ZM7.42005 5.03808L7.51339 5.32537H7.81548L7.57108 5.50293L7.66442 5.79025L7.42005 5.6127L7.17563 5.79025L7.26899 5.50293L7.02457 5.32537H7.32668L7.42005 5.03808ZM9.13009 5.03808L9.22343 5.32537H9.52555L9.28112 5.50293L9.37449 5.79025L9.13007 5.6127L8.8857 5.79025L8.97904 5.50293L8.73464 5.32537H9.03673L9.13009 5.03808ZM10.8401 5.03808L10.9335 5.32537H11.2356L10.9912 5.50293L11.0845 5.79025L10.8401 5.6127L10.5957 5.79025L10.6891 5.50293L10.4447 5.32537H10.7468L10.8401 5.03808ZM12.5501 5.03808L12.6434 5.32537H12.9455L12.7011 5.50293L12.7945 5.79025L12.5501 5.6127L12.3057 5.79025L12.399 5.50293L12.1546 5.32537H12.4567L12.5501 5.03808ZM4.85505 5.76499L4.94839 6.05229H5.2505L5.00608 6.22987L5.09945 6.51717L4.85502 6.33961L4.61065 6.51717L4.70399 6.22987L4.45959 6.05229H4.76168L4.85505 5.76499ZM6.56504 5.76499L6.65841 6.05229H6.96052L6.7161 6.22987L6.80946 6.51717L6.56504 6.33961L6.32067 6.51717L6.41401 6.22987L6.16961 6.05229H6.4717L6.56504 5.76499ZM8.27511 5.76499L8.36845 6.05229H8.67057L8.42614 6.22987L8.51951 6.51717L8.27511 6.33961L8.03071 6.51717L8.12405 6.22987L7.87966 6.05229H8.18177L8.27511 5.76499ZM9.98508 5.76499L10.0784 6.05229H10.3805L10.1361 6.22987L10.2294 6.51717L9.98508 6.33961L9.74065 6.51717L9.83402 6.22987L9.58959 6.05229H9.89171L9.98508 5.76499ZM11.6951 5.76499L11.7885 6.05229H12.0906L11.8462 6.22987L11.9395 6.51717L11.6951 6.33961L11.4507 6.51717L11.5441 6.22987L11.2997 6.05229H11.6018L11.6951 5.76499ZM13.4052 5.76499L13.4985 6.05229H13.8006L13.5562 6.22987L13.6496 6.51717L13.4052 6.33961L13.1607 6.51717L13.2541 6.22987L13.0097 6.05229H13.3118L13.4052 5.76499ZM5.71009 6.49191L5.80342 6.77923H6.10554L5.86112 6.95679L5.95451 7.24411L5.71009 7.06656L5.46569 7.24411L5.55903 6.95679L5.31463 6.77923H5.61675L5.71009 6.49191ZM7.42005 6.49191L7.51339 6.77923H7.81548L7.57108 6.95679L7.66442 7.24411L7.42005 7.06656L7.17563 7.24411L7.26899 6.95679L7.02457 6.77923H7.32668L7.42005 6.49191ZM9.13009 6.49191L9.22343 6.77923H9.52555L9.28112 6.95679L9.37449 7.24411L9.13007 7.06656L8.8857 7.24411L8.97904 6.95679L8.73464 6.77923H9.03673L9.13009 6.49191ZM10.8401 6.49191L10.9335 6.77923H11.2356L10.9912 6.95679L11.0845 7.24411L10.8401 7.06656L10.5957 7.24411L10.6891 6.95679L10.4447 6.77923H10.7468L10.8401 6.49191ZM12.5501 6.49191L12.6434 6.77923H12.9455L12.7011 6.95679L12.7945 7.24411L12.5501 7.06656L12.3057 7.24411L12.399 6.95679L12.1546 6.77923H12.4567L12.5501 6.49191ZM4.85505 7.21885L4.94839 7.50615H5.2505L5.00608 7.68373L5.09945 7.97103L4.85502 7.79347L4.61065 7.97103L4.70399 7.68373L4.45959 7.50615H4.76168L4.85505 7.21885ZM6.56504 7.21885L6.65841 7.50615H6.96052L6.7161 7.68373L6.80946 7.97103L6.56504 7.79347L6.32067 7.97103L6.41401 7.68373L6.16961 7.50615H6.4717L6.56504 7.21885ZM8.27511 7.21885L8.36845 7.50615H8.67057L8.42614 7.68373L8.51951 7.97103L8.27511 7.79347L8.03071 7.97103L8.12405 7.68373L7.87966 7.50615H8.18177L8.27511 7.21885ZM9.98508 7.21885L10.0784 7.50615H10.3805L10.1361 7.68373L10.2294 7.97103L9.98508 7.79347L9.74065 7.97103L9.83402 7.68373L9.58959 7.50615H9.89171L9.98508 7.21885ZM11.6951 7.21885L11.7885 7.50615H12.0906L11.8462 7.68373L11.9395 7.97103L11.6951 7.79347L11.4507 7.97103L11.5441 7.68373L11.2997 7.50615H11.6018L11.6951 7.21885ZM13.4052 7.21885L13.4985 7.50615H13.8006L13.5562 7.68373L13.6496 7.97103L13.4052 7.79347L13.1607 7.97103L13.2541 7.68373L13.0097 7.50615H13.3118L13.4052 7.21885ZM5.71009 7.94577L5.80342 8.23309H6.10554L5.86112 8.41065L5.95451 8.69797L5.71009 8.52042L5.46569 8.69797L5.55903 8.41065L5.31463 8.23309H5.61675L5.71009 7.94577ZM7.42005 7.94577L7.51339 8.23309H7.81548L7.57108 8.41065L7.66442 8.69797L7.42005 8.52042L7.17563 8.69797L7.26899 8.41065L7.02457 8.23309H7.32668L7.42005 7.94577ZM9.13009 7.94577L9.22343 8.23309H9.52555L9.28112 8.41065L9.37449 8.69797L9.13007 8.52042L8.8857 8.69797L8.97904 8.41065L8.73464 8.23309H9.03673L9.13009 7.94577ZM10.8401 7.94577L10.9335 8.23309H11.2356L10.9912 8.41065L11.0845 8.69797L10.8401 8.52042L10.5957 8.69797L10.6891 8.41065L10.4447 8.23309H10.7468L10.8401 7.94577ZM12.5501 7.94577L12.6434 8.23309H12.9455L12.7011 8.41065L12.7945 8.69797L12.5501 8.52042L12.3057 8.69797L12.399 8.41065L12.1546 8.23309H12.4567L12.5501 7.94577Z" fill="white"/>
<path fill-rule="evenodd" clip-rule="evenodd" d="M4.85505 8.67271L4.94839 8.96001H5.2505L5.00608 9.13759L5.09945 9.42489L4.85502 9.24733L4.61065 9.42489L4.70399 9.13759L4.45959 8.96001H4.76168L4.85505 8.67271ZM6.56504 8.67271L6.65841 8.96001H6.96052L6.7161 9.13759L6.80946 9.42489L6.56504 9.24733L6.32067 9.42489L6.41401 9.13759L6.16961 8.96001H6.4717L6.56504 8.67271ZM8.27511 8.67271L8.36845 8.96001H8.67057L8.42614 9.13759L8.51951 9.42489L8.27511 9.24733L8.03071 9.42489L8.12405 9.13759L7.87966 8.96001H8.18177L8.27511 8.67271ZM9.98508 8.67271L10.0784 8.96001H10.3805L10.1361 9.13759L10.2294 9.42489L9.98508 9.24733L9.74065 9.42489L9.83402 9.13759L9.58959 8.96001H9.89171L9.98508 8.67271ZM11.6951 8.67271L11.7885 8.96001H12.0906L11.8462 9.13759L11.9395 9.42489L11.6951 9.24733L11.4507 9.42489L11.5441 9.13759L11.2997 8.96001H11.6018L11.6951 8.67271ZM13.4052 8.67271L13.4985 8.96001H13.8006L13.5562 9.13759L13.6496 9.42489L13.4052 9.24733L13.1607 9.42489L13.2541 9.13759L13.0097 8.96001H13.3118L13.4052 8.67271ZM5.71009 9.39963L5.80342 9.68695H6.10554L5.86112 9.86451L5.95451 10.1518L5.71009 9.97428L5.46569 10.1518L5.55903 9.86451L5.31463 9.68695H5.61675L5.71009 9.39963ZM7.42005 9.39963L7.51339 9.68695H7.81548L7.57108 9.86451L7.66442 10.1518L7.42005 9.97428L7.17563 10.1518L7.26899 9.86451L7.02457 9.68695H7.32668L7.42005 9.39963ZM9.13009 9.39963L9.22343 9.68695H9.52555L9.28112 9.86451L9.37449 10.1518L9.13007 9.97428L8.8857 10.1518L8.97904 9.86451L8.73464 9.68695H9.03673L9.13009 9.39963ZM10.8401 9.39963L10.9335 9.68695H11.2356L10.9912 9.86451L11.0845 10.1518L10.8401 9.97428L10.5957 10.1518L10.6891 9.86451L10.4447 9.68695H10.7468L10.8401 9.39963ZM12.5501 9.39963L12.6434 9.68695H12.9455L12.7011 9.86451L12.7945 10.1518L12.5501 9.97428L12.3057 10.1518L12.399 9.86451L12.1546 9.68695H12.4567L12.5501 9.39963Z" fill="white"/>
<path fill-rule="evenodd" clip-rule="evenodd" d="M4.85505 10.1266L4.94839 10.4139H5.2505L5.00608 10.5915L5.09945 10.8788L4.85502 10.7012L4.61065 10.8788L4.70399 10.5915L4.45959 10.4139H4.76168L4.85505 10.1266ZM6.56504 10.1266L6.65841 10.4139H6.96052L6.7161 10.5915L6.80946 10.8788L6.56504 10.7012L6.32067 10.8788L6.41401 10.5915L6.16961 10.4139H6.4717L6.56504 10.1266ZM8.27511 10.1266L8.36845 10.4139H8.67057L8.42614 10.5915L8.51951 10.8788L8.27511 10.7012L8.03071 10.8788L8.12405 10.5915L7.87966 10.4139H8.18177L8.27511 10.1266ZM9.98508 10.1266L10.0784 10.4139H10.3805L10.1361 10.5915L10.2294 10.8788L9.98508 10.7012L9.74065 10.8788L9.83402 10.5915L9.58959 10.4139H9.89171L9.98508 10.1266ZM11.6951 10.1266L11.7885 10.4139H12.0906L11.8462 10.5915L11.9395 10.8788L11.6951 10.7012L11.4507 10.8788L11.5441 10.5915L11.2997 10.4139H11.6018L11.6951 10.1266ZM13.4052 10.1266L13.4985 10.4139H13.8006L13.5562 10.5915L13.6496 10.8788L13.4052 10.7012L13.1607 10.8788L13.2541 10.5915L13.0097 10.4139H13.3118L13.4052 10.1266Z" fill="white"/>
</g>
</g>
<defs>
<clipPath id="clip0_1_599">
<rect width="18" height="13.5" fill="white" transform="translate(4 4)"/>
</clipPath>
<clipPath id="clip1_1_599">
<rect width="18" height="13.5" fill="white" transform="translate(4 4)"/>
</clipPath>
</defs>
</svg>
